<svg version="1.1" id="Layer_1" xmlns="http://www.w3.org/2000/svg" xmlns:xlink="http://www.w3.org/1999/xlink" x="0px" y="0px"
	 width="100%" viewBox="0 0 551 546" enable-background="new 0 0 551 546" xml:space="preserve">
<path fill="#FCFDFD" opacity="1.000000" stroke="none" 
	d="
M1.000000,216.000000 
	C1.000000,144.016281 1.000000,72.532555 1.000000,1.024413 
	C184.608582,1.024413 368.217163,1.024413 551.912842,1.024413 
	C551.912842,182.900452 551.912842,364.800964 551.912842,546.850708 
	C368.333435,546.850708 184.666733,546.850708 1.000000,546.850708 
	C1.000000,436.782715 1.000000,326.641357 1.000000,216.000000 
M7.903761,275.495941 
	C8.316420,284.306763 8.254399,293.170288 9.226608,301.918945 
	C12.807483,334.142151 21.735500,364.920593 36.561596,393.736084 
	C66.068985,451.085663 110.549423,492.841583 169.569305,518.855286 
	C215.969772,539.306885 264.612549,545.568054 314.617981,538.632507 
	C367.307220,531.324646 414.223358,510.420929 454.498627,475.223572 
	C488.393738,445.602051 513.649841,409.879242 529.442627,367.781097 
	C542.435974,333.145172 547.998779,297.231201 546.294617,260.103546 
	C545.092896,233.923126 540.280762,208.537079 531.690735,183.933975 
	C514.854919,135.713806 486.183136,95.710548 446.336945,63.752804 
	C398.545319,25.422544 343.698730,6.174329 282.749481,4.337502 
	C260.945984,3.680410 239.262543,6.066641 217.896347,10.982439 
	C158.778366,24.583935 109.184235,54.214893 70.261574,100.597382 
	C28.218546,150.698303 7.720283,209.011169 7.903761,275.495941 
z"/>
<path fill="#85B9C2" opacity="1.000000" stroke="none" 
	d="
M7.903332,274.996765 
	C7.720283,209.011169 28.218546,150.698303 70.261574,100.597382 
	C109.184235,54.214893 158.778366,24.583935 217.896347,10.982439 
	C239.262543,6.066641 260.945984,3.680410 282.749481,4.337502 
	C343.698730,6.174329 398.545319,25.422544 446.336945,63.752804 
	C486.183136,95.710548 514.854919,135.713806 531.690735,183.933975 
	C540.280762,208.537079 545.092896,233.923126 546.294617,260.103546 
	C547.998779,297.231201 542.435974,333.145172 529.442627,367.781097 
	C513.649841,409.879242 488.393738,445.602051 454.498627,475.223572 
	C414.223358,510.420929 367.307220,531.324646 314.617981,538.632507 
	C264.612549,545.568054 215.969772,539.306885 169.569305,518.855286 
	C110.549423,492.841583 66.068985,451.085663 36.561596,393.736084 
	C21.735500,364.920593 12.807483,334.142151 9.226608,301.918945 
	C8.254399,293.170288 8.316420,284.306763 7.903332,274.996765 
M456.890381,326.316437 
	C454.512634,322.864960 451.680084,322.272491 447.974792,324.438965 
	C445.427460,325.928436 442.564209,326.877625 439.182343,327.941254 
	C434.468567,322.666779 428.993469,317.877411 425.241943,311.989807 
	C420.962616,305.273834 423.392151,298.213562 430.223297,294.688721 
	C433.091644,293.208618 436.519043,292.681549 439.759216,292.084137 
	C444.215881,291.262451 448.736115,290.785248 454.337921,290.006226 
	C452.131012,288.492218 450.950439,287.619873 449.710968,286.841309 
	C430.311615,274.655823 410.653870,262.856567 391.634552,250.104889 
	C384.907654,245.594772 379.734222,238.767639 373.651001,232.317886 
	C371.492584,225.001266 369.334198,217.684662 367.175812,210.368042 
	C367.636322,210.231964 368.096832,210.095886 368.557312,209.959808 
	C372.006866,217.786667 375.456421,225.613541 378.905975,233.440399 
	C380.719482,230.291046 380.610840,226.742188 382.241638,224.409256 
	C389.831696,213.551376 385.094696,204.385635 379.061951,195.188232 
	C377.786957,193.244415 376.763031,191.137390 375.522675,189.169052 
	C374.016846,186.779465 372.404175,184.457214 370.837769,182.105820 
	C370.399719,182.260376 369.961670,182.414932 369.523621,182.569489 
	C368.834808,189.236084 368.145966,195.902695 367.586914,201.313507 
	C362.957642,192.474121 358.771210,182.678940 352.987183,173.941284 
	C347.173035,165.158066 339.195007,158.211578 328.359894,155.502472 
	C330.305328,159.297546 333.122589,162.427216 334.966705,166.051987 
	C340.913544,177.741104 346.696198,189.524063 352.133118,201.457214 
	C354.315674,206.247620 355.458557,211.515152 357.032104,216.578735 
	C359.041809,223.045959 361.008423,229.526566 363.065887,236.735504 
	C364.499054,240.022583 365.932220,243.309647 366.765656,245.221237 
	C362.943207,248.154388 359.252319,250.467667 356.211426,253.444839 
	C351.931000,257.635590 347.315887,260.953400 340.950836,262.889862 
	C341.424500,261.372742 341.656372,260.603394 341.904510,259.839294 
	C345.538605,248.648666 341.629730,243.891937 330.043213,245.986115 
	C322.450470,247.358444 315.561554,247.289551 309.792053,241.217682 
	C306.074127,237.304901 302.082123,233.652573 298.468536,230.132507 
	C304.719849,228.201920 311.816467,226.476135 318.537964,223.806107 
	C325.543732,221.023148 330.259583,222.967819 335.092834,228.364838 
	C339.113800,232.854904 344.248566,236.427689 349.198303,239.976791 
	C352.323181,242.217468 354.998383,240.764481 354.958099,236.990601 
	C354.797302,221.916977 355.068207,206.939835 344.047272,194.262039 
	C337.448181,186.670883 330.179749,181.679901 320.309784,180.258041 
	C317.799042,179.896332 316.364441,180.279526 315.483856,182.989777 
	C312.900604,190.940704 309.886566,198.807495 317.700287,205.711838 
	C317.840942,205.836151 317.659607,206.324936 317.621338,206.717499 
	C314.191315,208.236450 310.670990,209.642517 307.293518,211.333740 
	C303.878204,213.043915 300.469940,214.836868 297.309021,216.965454 
	C294.545654,218.826294 292.257538,218.954071 289.040192,217.700027 
	C280.794739,214.486130 271.509369,220.806976 273.620697,229.002258 
	C275.375488,235.813599 270.865814,235.535522 267.882812,236.778076 
	C263.947906,238.417145 259.513977,238.807892 255.397324,240.070312 
	C242.533447,244.015244 229.685455,248.020386 216.920593,252.270370 
	C215.130936,252.866241 213.277054,254.680740 212.414536,256.410614 
	C208.196732,264.869781 204.304825,273.491516 200.297684,282.055756 
	C200.768829,282.164581 201.239960,282.273407 201.711105,282.382233 
	C201.622650,283.889709 201.956787,285.597931 201.356308,286.862213 
	C200.168167,289.363831 198.463425,291.620087 196.684326,294.091492 
	C196.798706,294.071930 196.913071,294.052399 197.876694,294.113129 
	C200.636124,293.862122 203.395569,293.611145 206.244461,293.352020 
	C201.237091,298.623260 201.278305,298.584076 206.749557,304.338684 
	C208.931244,306.633392 210.885864,309.143951 213.781219,312.537750 
	C202.269226,315.000519 192.155777,317.164093 182.042313,319.327667 
	C193.097748,319.556763 197.674500,327.099976 202.380157,335.388245 
	C211.082138,350.715332 219.757858,365.869476 223.479568,383.450531 
	C225.014069,390.699371 228.602585,397.513397 231.256882,404.525208 
	C231.737930,404.351440 232.218964,404.177673 232.700012,404.003906 
	C232.924042,402.234039 233.148056,400.464203 233.472458,397.901337 
	C236.075485,401.949097 238.031799,405.216064 240.210999,408.326874 
	C243.424210,412.913727 246.796097,417.389435 249.993332,422.013367 
	C249.993332,422.013367 249.896118,422.119171 249.176605,422.110718 
	C248.746780,423.096497 247.744675,424.243774 247.970627,425.044495 
	C253.946777,446.221405 264.298584,464.947998 279.497681,480.949036 
	C281.351746,482.900909 283.004181,483.897736 285.943420,483.133606 
	C295.250397,480.713989 304.605499,478.424255 314.032990,476.539429 
	C322.900482,474.766602 328.001678,470.843964 328.873901,460.798096 
	C329.930145,448.632721 333.136169,436.665741 335.093842,424.561462 
	C335.943665,419.307159 335.999603,413.924469 336.416107,408.600098 
	C336.930450,408.228699 337.444824,407.857300 337.959167,407.485901 
	C339.357880,409.609894 340.756622,411.733887 342.155334,413.857849 
	C342.313660,405.524994 341.390625,397.819641 340.507629,390.109680 
	C339.659607,382.705505 338.461334,375.313049 338.150085,367.884705 
	C337.892731,361.742035 340.555176,359.417023 346.291626,360.137909 
	C355.659485,361.315155 364.987885,362.822754 374.314423,364.307343 
	C381.351410,365.427460 388.316803,367.203247 395.390350,367.840546 
	C406.273285,368.821014 415.959198,364.938416 425.707611,359.073029 
	C433.022797,361.211395 434.403870,360.666595 438.454193,354.387604 
	C439.041138,353.477692 440.299438,353.010040 440.922943,352.112549 
	C442.066986,350.465851 442.969513,348.651367 444.277466,346.324982 
	C448.516571,339.889954 452.755676,333.454926 456.890381,326.316437 
M241.395309,170.980133 
	C245.119110,166.883392 250.567368,163.372589 252.200729,158.565567 
	C255.409012,149.123398 258.956482,140.298996 266.072662,133.115585 
	C267.012482,132.166885 267.618256,130.021744 267.243591,128.770645 
	C263.595551,116.588104 259.956360,104.391342 255.802765,92.375557 
	C252.666397,83.302414 249.092972,74.346855 245.123459,65.607224 
	C242.554367,59.950916 238.202499,59.698303 234.208694,64.452637 
	C232.516815,66.466675 231.103943,68.787148 229.924606,71.148323 
	C220.272614,90.472832 210.587891,109.783020 201.204956,129.238312 
	C199.143555,133.512573 197.628220,138.260406 196.960205,142.946777 
	C195.981110,149.815506 196.781769,156.992538 195.355484,163.727203 
	C193.984802,170.199371 194.497910,176.135284 196.252975,182.237091 
	C197.216064,185.585495 198.050293,188.973190 199.099121,192.293747 
	C199.609970,193.911102 200.479553,195.415176 201.333023,197.292191 
	C210.940659,191.977112 219.907547,187.016495 229.177505,181.888214 
	C226.663071,176.006989 224.408249,170.732956 222.153412,165.458939 
	C225.992722,167.068237 228.972153,169.130859 231.717468,171.468445 
	C234.865295,174.148743 237.807129,174.600204 241.395309,170.980133 
M331.862030,104.387314 
	C328.350433,111.367638 324.959381,118.412544 321.271973,125.298729 
	C319.634888,128.356033 320.124054,130.829422 322.505432,132.873444 
	C331.028229,140.188919 339.655701,147.382645 348.277771,154.581421 
	C348.533234,154.794678 349.169495,154.551819 349.721130,154.515503 
	C350.124573,151.966141 350.593414,149.525360 350.887299,147.063705 
	C353.206757,127.635162 355.519501,108.205719 357.768341,88.768929 
	C358.264008,84.484657 358.810425,80.162292 358.705719,75.872787 
	C358.659790,73.989914 357.039490,72.145462 356.134033,70.283569 
	C354.330536,71.179970 352.391632,71.886627 350.772888,73.041908 
	C349.754974,73.768364 349.153625,75.129616 348.473938,76.270729 
	C343.028107,85.413460 337.608215,94.571640 331.862030,104.387314 
z"/>
<path fill="#C9F0F5" opacity="1.000000" stroke="none" 
	d="
M250.100403,421.912506 
	C246.796097,417.389435 243.424210,412.913727 240.210999,408.326874 
	C238.031799,405.216064 236.075485,401.949097 233.472458,397.901337 
	C233.148056,400.464203 232.924042,402.234039 232.700012,404.003906 
	C232.218964,404.177673 231.737930,404.351440 231.256882,404.525208 
	C228.602585,397.513397 225.014069,390.699371 223.479568,383.450531 
	C219.757858,365.869476 211.082138,350.715332 202.380157,335.388245 
	C197.674500,327.099976 193.097748,319.556763 182.042313,319.327667 
	C192.155777,317.164093 202.269226,315.000519 213.781219,312.537750 
	C210.885864,309.143951 208.931244,306.633392 206.749557,304.338684 
	C201.278305,298.584076 201.237091,298.623260 206.244461,293.352020 
	C203.395569,293.611145 200.636124,293.862122 197.439301,294.058105 
	C197.001907,294.003052 196.972260,293.977783 196.972260,293.977783 
	C198.463425,291.620087 200.168167,289.363831 201.356308,286.862213 
	C201.956787,285.597931 201.622650,283.889709 201.711105,282.382233 
	C201.239960,282.273407 200.768829,282.164581 200.297684,282.055756 
	C204.304825,273.491516 208.196732,264.869781 212.414536,256.410614 
	C213.277054,254.680740 215.130936,252.866241 216.920593,252.270370 
	C229.685455,248.020386 242.533447,244.015244 255.397324,240.070312 
	C259.513977,238.807892 263.947906,238.417145 267.882812,236.778076 
	C270.865814,235.535522 275.375488,235.813599 273.620697,229.002258 
	C271.509369,220.806976 280.794739,214.486130 289.040192,217.700027 
	C292.257538,218.954071 294.545654,218.826294 297.309021,216.965454 
	C300.469940,214.836868 303.878204,213.043915 307.293518,211.333740 
	C310.670990,209.642517 314.191315,208.236450 317.621338,206.717499 
	C317.659607,206.324936 317.840942,205.836151 317.700287,205.711838 
	C309.886566,198.807495 312.900604,190.940704 315.483856,182.989777 
	C316.364441,180.279526 317.799042,179.896332 320.309784,180.258041 
	C330.179749,181.679901 337.448181,186.670883 344.047272,194.262039 
	C355.068207,206.939835 354.797302,221.916977 354.958099,236.990601 
	C354.998383,240.764481 352.323181,242.217468 349.198303,239.976791 
	C344.248566,236.427689 339.113800,232.854904 335.092834,228.364838 
	C330.259583,222.967819 325.543732,221.023148 318.537964,223.806107 
	C311.816467,226.476135 304.719849,228.201920 298.468536,230.132507 
	C302.082123,233.652573 306.074127,237.304901 309.792053,241.217682 
	C315.561554,247.289551 322.450470,247.358444 330.043213,245.986115 
	C341.629730,243.891937 345.538605,248.648666 341.904510,259.839294 
	C341.656372,260.603394 341.424500,261.372742 340.950836,262.889862 
	C347.315887,260.953400 351.931000,257.635590 356.211426,253.444839 
	C359.252319,250.467667 362.943207,248.154388 366.765656,245.221237 
	C365.932220,243.309647 364.499054,240.022583 363.433838,236.367981 
	C367.151703,234.999756 370.501648,233.999054 373.851562,232.998322 
	C379.734222,238.767639 384.907654,245.594772 391.634552,250.104889 
	C410.653870,262.856567 430.311615,274.655823 449.710968,286.841309 
	C450.950439,287.619873 452.131012,288.492218 454.337921,290.006226 
	C448.736115,290.785248 444.215881,291.262451 439.759216,292.084137 
	C436.519043,292.681549 433.091644,293.208618 430.223297,294.688721 
	C423.392151,298.213562 420.962616,305.273834 425.241943,311.989807 
	C428.993469,317.877411 434.468567,322.666779 439.697327,328.300415 
	C441.489655,329.867371 442.766968,331.075195 443.793091,332.045532 
	C443.119354,334.648438 442.554413,336.831116 441.994507,339.007812 
	C441.999603,339.001801 442.009583,338.988922 441.664246,338.999573 
	C438.493958,341.216980 435.957733,344.085724 432.775604,345.473389 
	C428.145081,347.492615 423.102570,348.679230 418.141663,349.807068 
	C404.459808,352.917603 390.320374,355.405121 376.758972,351.674377 
	C364.234741,348.228943 352.572784,341.719147 340.409546,336.863373 
	C333.824585,334.234467 327.025940,332.104919 320.220367,330.101166 
	C319.135010,329.781616 317.504333,331.314148 316.125763,331.990448 
	C316.814453,333.219147 317.200317,334.938965 318.248199,335.585175 
	C321.483948,337.580475 324.814453,339.646759 328.391907,340.821503 
	C339.422638,344.443787 350.977325,346.742462 361.603058,351.261169 
	C376.971863,357.796967 392.556641,357.657990 408.574371,356.227631 
	C414.844513,355.667725 421.206451,356.135986 427.507141,356.135986 
	C426.651031,357.052948 425.765839,358.001068 424.880615,358.949158 
	C415.959198,364.938416 406.273285,368.821014 395.390350,367.840546 
	C388.316803,367.203247 381.351410,365.427460 374.314423,364.307343 
	C364.987885,362.822754 355.659485,361.315155 346.291626,360.137909 
	C340.555176,359.417023 337.892731,361.742035 338.150085,367.884705 
	C338.461334,375.313049 339.659607,382.705505 340.507629,390.109680 
	C341.390625,397.819641 342.313660,405.524994 342.155334,413.857849 
	C340.756622,411.733887 339.357880,409.609894 337.959167,407.485901 
	C337.444824,407.857300 336.930450,408.228699 336.416107,408.600098 
	C335.999603,413.924469 335.943665,419.307159 335.093842,424.561462 
	C333.136169,436.665741 329.930145,448.632721 328.873901,460.798096 
	C328.001678,470.843964 322.900482,474.766602 314.032990,476.539429 
	C304.605499,478.424255 295.250397,480.713989 285.943420,483.133606 
	C283.004181,483.897736 281.351746,482.900909 279.497681,480.949036 
	C264.298584,464.947998 253.946777,446.221405 247.970627,425.044495 
	C247.744675,424.243774 248.746780,423.096497 249.656799,422.333893 
	C250.431931,422.695435 250.726868,422.833801 251.054840,423.114197 
	C251.162323,423.228058 251.236771,423.199921 251.311218,423.171753 
	C251.198929,423.120789 251.086639,423.069824 250.904266,422.781830 
	C250.672409,422.237915 250.427811,422.027130 250.100403,421.912506 
z"/>
<path fill="#C9F0F5" opacity="1.000000" stroke="none" 
	d="
M241.118423,171.211349 
	C237.807129,174.600204 234.865295,174.148743 231.717468,171.468445 
	C228.972153,169.130859 225.992722,167.068237 222.153412,165.458939 
	C224.408249,170.732956 226.663071,176.006989 229.177505,181.888214 
	C219.907547,187.016495 210.940659,191.977112 201.333023,197.292191 
	C200.479553,195.415176 199.609970,193.911102 199.099121,192.293747 
	C198.050293,188.973190 197.216064,185.585495 196.252975,182.237091 
	C194.497910,176.135284 193.984802,170.199371 195.355484,163.727203 
	C196.781769,156.992538 195.981110,149.815506 196.960205,142.946777 
	C197.628220,138.260406 199.143555,133.512573 201.204956,129.238312 
	C210.587891,109.783020 220.272614,90.472832 229.924606,71.148323 
	C231.103943,68.787148 232.516815,66.466675 234.208694,64.452637 
	C238.202499,59.698303 242.554367,59.950916 245.123459,65.607224 
	C249.092972,74.346855 252.666397,83.302414 255.802765,92.375557 
	C259.956360,104.391342 263.595551,116.588104 267.243591,128.770645 
	C267.618256,130.021744 267.012482,132.166885 266.072662,133.115585 
	C258.956482,140.298996 255.409012,149.123398 252.200729,158.565567 
	C250.567368,163.372589 245.119110,166.883392 241.118423,171.211349 
M221.381561,163.515686 
	C221.381561,163.515686 221.537964,163.617157 221.537964,163.617157 
	C221.537964,163.617157 221.523987,163.419739 221.381561,163.515686 
z"/>
<path fill="#C9F0F5" opacity="1.000000" stroke="none" 
	d="
M332.021210,104.056190 
	C337.608215,94.571640 343.028107,85.413460 348.473938,76.270729 
	C349.153625,75.129616 349.754974,73.768364 350.772888,73.041908 
	C352.391632,71.886627 354.330536,71.179970 356.134033,70.283569 
	C357.039490,72.145462 358.659790,73.989914 358.705719,75.872787 
	C358.810425,80.162292 358.264008,84.484657 357.768341,88.768929 
	C355.519501,108.205719 353.206757,127.635162 350.887299,147.063705 
	C350.593414,149.525360 350.124573,151.966141 349.721130,154.515503 
	C349.169495,154.551819 348.533234,154.794678 348.277771,154.581421 
	C339.655701,147.382645 331.028229,140.188919 322.505432,132.873444 
	C320.124054,130.829422 319.634888,128.356033 321.271973,125.298729 
	C324.959381,118.412544 328.350433,111.367638 332.021210,104.056190 
z"/>
<path fill="#C9F0F5" opacity="1.000000" stroke="none" 
	d="
M373.751282,232.658112 
	C370.501648,233.999054 367.151703,234.999756 363.397705,236.000946 
	C361.008423,229.526566 359.041809,223.045959 357.032104,216.578735 
	C355.458557,211.515152 354.315674,206.247620 352.133118,201.457214 
	C346.696198,189.524063 340.913544,177.741104 334.966705,166.051987 
	C333.122589,162.427216 330.305328,159.297546 328.359894,155.502472 
	C339.195007,158.211578 347.173035,165.158066 352.987183,173.941284 
	C358.771210,182.678940 362.957642,192.474121 367.586914,201.313507 
	C368.145966,195.902695 368.834808,189.236084 369.523621,182.569489 
	C369.961670,182.414932 370.399719,182.260376 370.837769,182.105820 
	C372.404175,184.457214 374.016846,186.779465 375.522675,189.169052 
	C376.763031,191.137390 377.786957,193.244415 379.061951,195.188232 
	C385.094696,204.385635 389.831696,213.551376 382.241638,224.409256 
	C380.610840,226.742188 380.719482,230.291046 378.905975,233.440399 
	C375.456421,225.613541 372.006866,217.786667 368.557312,209.959808 
	C368.096832,210.095886 367.636322,210.231964 367.175812,210.368042 
	C369.334198,217.684662 371.492584,225.001266 373.751282,232.658112 
z"/>
<path fill="#82BBC3" opacity="1.000000" stroke="none" 
	d="
M425.294128,359.011108 
	C425.765839,358.001068 426.651031,357.052948 427.507141,356.135986 
	C421.206451,356.135986 414.844513,355.667725 408.574371,356.227631 
	C392.556641,357.657990 376.971863,357.796967 361.603058,351.261169 
	C350.977325,346.742462 339.422638,344.443787 328.391907,340.821503 
	C324.814453,339.646759 321.483948,337.580475 318.248199,335.585175 
	C317.200317,334.938965 316.814453,333.219147 316.125763,331.990448 
	C317.504333,331.314148 319.135010,329.781616 320.220367,330.101166 
	C327.025940,332.104919 333.824585,334.234467 340.409546,336.863373 
	C352.572784,341.719147 364.234741,348.228943 376.758972,351.674377 
	C390.320374,355.405121 404.459808,352.917603 418.141663,349.807068 
	C423.102570,348.679230 428.145081,347.492615 432.775604,345.473389 
	C435.957733,344.085724 438.493958,341.216980 441.690399,339.386658 
	C441.574188,341.157684 440.914459,342.520874 440.652405,343.956665 
	C440.437622,345.133636 440.696136,346.397034 440.744781,347.622101 
	C441.820740,347.383667 442.896729,347.145233 443.972717,346.906799 
	C442.969513,348.651367 442.066986,350.465851 440.922943,352.112549 
	C440.299438,353.010040 439.041138,353.477692 438.454193,354.387604 
	C434.403870,360.666595 433.022797,361.211395 425.294128,359.011108 
z"/>
<path fill="#C8F0F5" opacity="1.000000" stroke="none" 
	d="
M444.125061,346.615906 
	C442.896729,347.145233 441.820740,347.383667 440.744781,347.622101 
	C440.696136,346.397034 440.437622,345.133636 440.652405,343.956665 
	C440.914459,342.520874 441.574188,341.157684 442.035736,339.376007 
	C442.009583,338.988922 441.999603,339.001801 442.322327,338.909088 
	C447.428314,334.884216 452.211548,330.952057 456.994781,327.019897 
	C452.755676,333.454926 448.516571,339.889954 444.125061,346.615906 
z"/>
<path fill="#82BBC3" opacity="1.000000" stroke="none" 
	d="
M456.942566,326.668152 
	C452.211548,330.952057 447.428314,334.884216 442.317261,338.915100 
	C442.554413,336.831116 443.119354,334.648438 443.793091,332.045532 
	C442.766968,331.075195 441.489655,329.867371 440.027283,328.363922 
	C442.564209,326.877625 445.427460,325.928436 447.974792,324.438965 
	C451.680084,322.272491 454.512634,322.864960 456.942566,326.668152 
z"/>
<path fill="#C9F0F5" opacity="1.000000" stroke="none" 
	d="
M197.014679,294.017944 
	C196.913071,294.052399 196.798706,294.071930 196.828293,294.034637 
	C196.972260,293.977783 197.001907,294.003052 197.014679,294.017944 
z"/>
<path fill="#85B9C2" opacity="1.000000" stroke="none" 
	d="
M251.021820,422.972168 
	C250.726868,422.833801 250.431931,422.695435 250.016556,422.338135 
	C249.896118,422.119171 249.993332,422.013367 250.046875,421.962952 
	C250.427811,422.027130 250.672409,422.237915 250.917358,422.771484 
	C251.000534,422.998138 251.021820,422.972168 251.021820,422.972168 
z"/>
<path fill="#85B9C2" opacity="1.000000" stroke="none" 
	d="
M250.987442,423.008484 
	C251.086639,423.069824 251.198929,423.120789 251.311218,423.171753 
	C251.236771,423.199921 251.162323,423.228058 251.054840,423.114197 
	C251.021820,422.972168 251.000534,422.998138 250.987442,423.008484 
z"/>
<path fill="#85B9C2" opacity="1.000000" stroke="none" 
	d="
M221.452774,163.467712 
	C221.523987,163.419739 221.537964,163.617157 221.537964,163.617157 
	C221.537964,163.617157 221.381561,163.515686 221.452774,163.467712 
z"/>
</svg>